# xmcd
#
# Track frame offsets:
#	150
#	12490
#	25857
#	38782
#	51657
#	65662
#	79492
#	91737
#	104037
#	118277
#	129777
#	143027
#	155225
#	167097
#	180612
#
# Disc length: 2593
#
# Revision: 2
# Processed by: cddbd v1.5.1PL0 Copyright (c) Steve Scherf et al.
# Submitted via: OrangeCD 4.2
# Normalized: r0:DSETVAR1,TDELIM( - );r1:TSWAP
#
DISCID=d70a1f0f
DTITLE=Various Artist - Living The Blues [Blues Greats]
DYEAR=1900
DGENRE=Blues
TTITLE0=Roy Brown - Rockin' At Midnight
TTITLE1=Percy Mayfield - Prayin' For Your Return
TTITLE2=Muddy Waters - I Just Want To Make Love To You
TTITLE3=Ivory Joe Hunter - Jealous Heart
TTITLE4=Charles Brown - Black Night
TTITLE5=Roy Milton - Night and Day I Miss You So
TTITLE6=Bobby Bland - Cry Cry Cry
TTITLE7=Little Walter and His Night Cats - Juke
TTITLE8=Sonny Boy Williamson - Help Me
TTITLE9=Wynonie Harris - All She Wants To Do Is Rock
TTITLE10=Jimmy Liggins - Don't Put Me Down
TTITLE11=Tiny Bradshaw - Well Oh Well
TTITLE12=Little Junior Parker - Driving Wheel
TTITLE13=Bull Moose Jackson - I Love You Yes I Do
TTITLE14=Bill Doggett - Honky Tonk Part 1
EXTD=
EXTT0=
EXTT1=
EXTT2=
EXTT3=
EXTT4=
EXTT5=
EXTT6=
EXTT7=
EXTT8=
EXTT9=
EXTT10=
EXTT11=
EXTT12=
EXTT13=
EXTT14=
PLAYORDER=
